<?xml version="1.0" standalone="no"?>
<!DOCTYPE svg PUBLIC "-//W3C//DTD SVG 20010904//EN"
 "http://www.w3.org/TR/2001/REC-SVG-20010904/DTD/svg10.dtd">
<svg version="1.0" xmlns="http://www.w3.org/2000/svg"
 width="842.000000pt" height="595.000000pt" viewBox="0 0 842.000000 595.000000"
 preserveAspectRatio="xMidYMid meet">

<g transform="translate(0.000000,595.000000) scale(0.100000,-0.100000)"
fill="#000000" stroke="none">
<path d="M5615 5739 c-272 -15 -813 -96 -1355 -205 -659 -132 -813 -145 -1115
-94 -152 25 -198 25 -251 0 -98 -48 -207 -179 -220 -265 -5 -34 1 -68 26 -152
55 -185 70 -246 70 -300 0 -56 -9 -123 -129 -923 -146 -974 -204 -1406 -295
-2195 -51 -437 -59 -552 -60 -835 -1 -295 0 -301 95 -404 60 -66 126 -111 211
-145 48 -19 72 -22 141 -20 108 5 152 31 194 116 l28 58 -3 496 c-3 536 7 818
38 1029 21 144 41 219 66 258 62 94 636 237 1834 458 264 48 397 80 501 120
57 21 80 38 155 115 49 49 100 108 113 131 23 37 24 44 12 87 -54 202 -142
267 -361 264 -157 -1 -236 -20 -750 -176 -179 -55 -327 -91 -550 -136 -405
-82 -643 -135 -767 -170 -56 -15 -105 -26 -108 -23 -9 9 -6 241 5 383 35 453
133 1004 246 1376 43 145 57 169 112 197 182 92 868 222 1486 281 200 19 403
19 571 0 250 -28 331 -19 420 51 110 85 163 162 190 276 31 132 14 181 -84
250 -66 46 -188 94 -256 101 -27 2 -122 1 -210 -4z"/>
</g>
</svg>
